<?xml version="1.0" encoding="UTF-8" standalone="no"?>

<!-- ####################################################################

This file was generates automatically via the 
IconPacks.Browser (MIT-License). 

Visit https://github.com/MahApps/MahApps.Metro.IconPacks and 
https://github.com/MahApps/MahApps.Metro.IconPacks/blob/develop/LICENSE 
for more information.
 
~~~~~~~~~~~~~~~~~~~~~~~~~~~~~~~~~~~~~~~~~~~~~~~~~~~~~~~~~~~~~~~~~~~~~~~~~~
 
Icon-Name: 			ConnectionWifiVariant
Iconpack:			Modern
Iconpack-Homepage: 	https://github.com/Templarian/WindowsIcons
Iconpack-License:	https://github.com/Templarian/WindowsIcons/blob/master/WindowsPhone/license.txt

#####################################################################-->


<svg xmlns="http://www.w3.org/2000/svg"
     width="48"
     height="48">
    <path d="M 53,49C 55.2091,49 57,50.7909 57,53C 57,55.2091 55.2091,57 53,57C 50.7909,57 49,55.2091 49,53C 49,50.7909 50.7909,49 53,49 Z M 57,24C 38.7746,24 24,38.7746 24,57L 19,57C 19,36.0132 36.0132,19 57,19L 57,24 Z M 57,34C 44.2974,34 34,44.2975 34,57L 29,57C 29,41.536 41.536,29 57,29L 57,34 Z M 57,44C 49.8203,44 44,49.8203 44,57L 39,57C 39,47.0589 47.0589,39 57,39L 57,44 Z "
          style="fill:#000000;
                 stroke:none
                 stroke-width:0;
                 stroke-linecap:flat;
                 stroke-linejoin:miter;"
          transform="matrix(1.26315789473684,0,0,1.26315789473684,-24,-24)" />
</svg>