<svg width="512" height="512" viewBox="0 0 512 512" fill="none" xmlns="http://www.w3.org/2000/svg">
<rect width="512" height="512" fill="#0DBA53"/>
<path d="M249.005 236.546L233.584 270.921C233.584 270.921 198.299 352.4 183.561 370.444C185.526 367.101 187.192 363.801 188.644 360.629C197.487 340.484 208.039 309.624 207.782 275.936L209.79 244.219L209.961 241.304L210.046 240.361V240.275C211.328 238.047 243.836 179.713 245.631 156.525C247.425 132.909 236.617 128.108 236.617 128.108C243.238 121.593 251.013 116.793 258.83 117.822C272.372 119.579 277.712 140.152 277.968 150.096C277.968 150.096 281.898 177.141 249.005 236.504V236.546Z" fill="#D9DDDA"/>
<path d="M147.247 350.085C143.104 356.857 138.319 363.372 132.68 369.458C128.836 373.658 124.692 377.602 120.292 381.245C116.447 384.416 112.475 387.117 112.645 392.689C112.731 395.346 113.884 398.132 116.02 399.804C119.395 402.504 128.964 409.876 143.787 407.647C158.61 405.418 179.713 380.73 188.556 360.586C197.398 340.441 207.907 309.581 207.693 275.85L295.65 259.005C293.771 278.893 293.002 299.08 293.899 319.011C295.052 343.313 300.734 371.344 318.462 389.217C332.302 403.19 362.077 410.562 375.491 391.531C375.491 391.531 384.12 382.273 371.859 377.773C357.592 372.501 345.203 354.928 340.504 340.913C331.875 315.153 332.73 288.965 335.378 262.306C338.069 235.303 343.067 208.515 350.372 182.327C354.559 167.24 359.514 152.367 365.195 137.794C368.527 129.222 377.626 111.092 361.735 109.292C351.91 108.178 341.145 108.606 332.644 114.178C322.007 121.207 316.924 135.566 313.677 147.395C308.765 165.268 304.835 183.827 302.784 202.257L299.623 226.602L209.701 244.175C209.701 244.175 212.606 202.386 213.546 192.442C214.486 182.498 217.177 154.296 224.524 143.066C231.872 131.837 245.285 116.021 258.827 117.778C272.369 119.536 277.709 140.152 277.965 150.096C277.965 150.096 278.905 132.908 269.806 118.979C256.179 98.1481 224.994 100.291 207.053 113.364C196.544 120.993 188.812 132.008 183.643 143.924C178.474 155.839 175.74 168.697 173.989 181.598C170.913 204.358 171.682 227.331 171.255 250.176C171.255 250.176 171.127 272.764 169.162 285.279C165.488 308.467 159.208 330.54 147.333 350.085H147.247Z" fill="white"/>
</svg>
